<svg xmlns="http://www.w3.org/2000/svg" width="1536" height="1024" viewBox="0 0 1536 1024" version="1.1"><path d="M 767.993 217.583 L 767.986 218.500 765.509 232.500 L 763.031 246.500 763.099 248 L 763.167 249.500 764.440 244 L 765.714 238.500 767.013 231 L 768.313 223.500 769.034 226.116 L 769.755 228.732 771.030 237.616 L 772.304 246.500 772.739 245.239 L 773.174 243.978 770.972 230.739 L 768.771 217.500 768.385 217.083 L 768 216.667 767.993 217.583 M 762.079 250.689 L 762 251.877 759.458 266.689 L 756.915 281.500 751.505 313 L 746.095 344.500 744.045 356 L 741.994 367.500 735.469 401.500 L 728.943 435.500 726.052 449 L 723.160 462.500 719.019 478.500 L 714.877 494.500 709.887 512 L 704.897 529.500 704.381 531.250 L 703.865 533 703.069 533 L 702.272 533 699.792 529.250 L 697.313 525.500 687.805 508.500 L 678.296 491.500 671.758 479.500 L 665.220 467.500 659.987 457.500 L 654.755 447.500 647.730 434 L 640.705 420.500 639.971 419.500 L 639.238 418.500 613.999 368.500 L 588.760 318.500 587.809 317.500 L 586.858 316.500 587.381 319 L 587.903 321.500 589.678 341 L 591.452 360.500 591.817 358.660 L 592.181 356.819 591.077 343.660 L 589.973 330.500 589.413 326.500 L 588.854 322.500 591.860 328.135 L 594.867 333.771 628.064 399.635 L 661.260 465.500 672.380 487.533 L 683.500 509.566 693.970 528.263 L 704.439 546.961 705.066 546.230 L 705.693 545.500 709.284 533 L 712.876 520.500 714.970 511 L 717.063 501.500 718.522 495.500 L 719.981 489.500 727.948 449.500 L 735.914 409.500 738.398 396 L 740.881 382.500 743.935 365 L 746.988 347.500 753.047 312 L 759.107 276.500 761.089 264.106 L 763.071 251.712 762.614 250.606 L 762.158 249.500 762.079 250.689 M 768 255.418 L 768 256.836 767.330 258.582 L 766.660 260.328 767.674 259.701 L 768.689 259.074 769.858 268.787 L 771.028 278.500 776.027 315 L 781.025 351.500 782.476 360.500 L 783.927 369.500 786.940 390.500 L 789.953 411.500 796.452 450.218 L 802.952 488.935 805.035 498.718 L 807.118 508.500 809.588 520 L 812.058 531.500 814.005 540.500 L 815.953 549.500 816.540 551.546 L 817.127 553.593 804.313 566.962 L 791.500 580.332 780.685 589.166 L 769.871 598 768.497 598 L 767.123 598 759.149 591.991 L 751.174 585.982 735.383 570.432 L 719.593 554.883 723.867 534.191 L 728.142 513.500 729.523 507 L 730.905 500.500 734.902 478.500 L 738.899 456.500 741.973 439.128 L 745.048 421.757 748.490 397.628 L 751.932 373.500 753.914 360 L 755.897 346.500 759.947 317 L 763.997 287.500 765.110 279.194 L 766.222 270.889 765.756 270.423 L 765.290 269.957 763.117 286.228 L 760.944 302.500 759.009 315.500 L 757.073 328.500 754.552 346 L 752.031 363.500 747.547 392.500 L 743.062 421.500 740.524 436.157 L 737.986 450.814 733.925 470.657 L 729.865 490.500 724.411 513 L 718.958 535.500 715.911 546.286 L 712.864 557.071 717.844 562.786 L 722.824 568.500 734.662 580.093 L 746.500 591.686 754.465 597.962 L 762.429 604.237 765.711 605.802 L 768.992 607.366 777.746 601.456 L 786.500 595.545 802.014 580.023 L 817.527 564.500 820.365 560.773 L 823.202 557.046 818.695 539.773 L 814.188 522.500 810.034 504.622 L 805.880 486.744 803.986 477.622 L 802.091 468.500 798.536 449.674 L 794.981 430.848 789.980 398.174 L 784.980 365.500 782.990 353 L 781.001 340.500 776.091 306 L 771.182 271.500 769.988 262.750 L 768.793 254 768.397 254 L 768 254 768 255.418 M 776.106 267 L 776.004 268.500 778.514 283 L 781.025 297.500 786.058 327 L 791.091 356.500 795.580 381 L 800.068 405.500 809.584 453 L 819.101 500.500 824.609 522.476 L 830.118 544.451 830.559 544.892 L 831 545.333 831.407 544.917 L 831.815 544.500 836.541 536.500 L 841.268 528.500 847.968 516.500 L 854.668 504.500 864.716 485 L 874.764 465.500 909.132 397.240 L 943.500 328.981 945.641 324.913 L 947.782 320.845 948.312 322.173 L 948.842 323.500 948.921 319.583 L 949 315.667 948.620 316.083 L 948.241 316.500 939.661 333.172 L 931.080 349.844 913.584 384.672 L 896.087 419.500 881.951 446 L 867.815 472.500 854.510 496 L 841.205 519.500 837.225 526.274 L 833.246 533.048 832.740 531.274 L 832.234 529.500 827.552 513.500 L 822.869 497.500 817.504 476 L 812.139 454.500 808.154 436 L 804.170 417.500 801.128 401.500 L 798.086 385.500 795.957 374 L 793.829 362.500 792.937 357.500 L 792.045 352.500 789.130 336 L 786.214 319.500 782.532 299 L 778.850 278.500 777.529 272 L 776.208 265.500 776.106 267 M 945.667 342.661 L 943.892 357.500 941.926 381.500 L 939.960 405.500 938.009 429.500 L 936.058 453.500 932.561 498 L 929.064 542.500 928.384 557.750 L 927.703 573 928.773 573 L 929.842 573 945.810 556.250 L 961.777 539.500 977.554 521.500 L 993.331 503.500 1007.722 486.279 L 1022.113 469.059 1029.806 460.270 L 1037.500 451.482 1044.966 442.491 L 1052.431 433.500 1056.350 429 L 1060.269 424.500 1062.977 421.500 L 1065.685 418.500 1072.592 410.429 L 1079.500 402.357 1083.957 396.719 L 1088.414 391.081 1088.800 391.466 L 1089.185 391.852 1087.536 397.676 L 1085.887 403.500 1085.319 405.500 L 1084.752 407.500 1085.443 406.849 L 1086.134 406.199 1088.567 397.356 L 1091 388.514 1091 388.102 L 1091 387.690 1088.864 389.595 L 1086.729 391.500 1079.632 400 L 1072.536 408.500 1069.886 411.500 L 1067.236 414.500 1052.368 431.596 L 1037.500 448.692 1033 454.077 L 1028.500 459.462 1023.430 464.981 L 1018.360 470.500 1014.806 474.500 L 1011.252 478.500 1005.376 485.113 L 999.500 491.726 984.551 508.009 L 969.601 524.293 954.181 540.396 L 938.761 556.500 936.263 559 L 933.766 561.500 934.434 541 L 935.102 520.500 936.021 493.500 L 936.939 466.500 939.448 432 L 941.956 397.500 942.450 393 L 942.944 388.500 943.986 374.500 L 945.027 360.500 946.592 345.236 L 948.157 329.972 947.799 328.897 L 947.441 327.822 945.667 342.661 M 936.604 351.590 L 935.994 353.180 936.559 354.096 L 937.125 355.012 935.098 369.756 L 933.071 384.500 929.064 417.500 L 925.056 450.500 924.029 459 L 923.002 467.500 920.556 486.500 L 918.110 505.500 917.582 511 L 917.054 516.500 915.087 535 L 913.120 553.500 911.869 566.400 L 910.618 579.301 908.154 582.229 L 905.691 585.157 897.095 590.929 L 888.500 596.702 885.300 598.351 L 882.099 600 878.563 600 L 875.027 600 867.764 591.427 L 860.500 582.855 854.785 574.677 L 849.070 566.500 845.953 562.183 L 842.836 557.866 844.536 554.283 L 846.236 550.700 852.156 540.100 L 858.077 529.500 867.649 510 L 877.222 490.500 882.005 480 L 886.788 469.500 890.013 462.500 L 893.238 455.500 900.710 438.500 L 908.183 421.500 921.631 390.123 L 935.080 358.746 934.692 358.358 L 934.304 357.970 928.018 372.235 L 921.732 386.500 911.969 408.500 L 902.207 430.500 893.735 448.500 L 885.264 466.500 877.507 482 L 869.751 497.500 859.250 517 L 848.748 536.500 843.719 545 L 838.690 553.500 837.287 555.143 L 835.884 556.786 837.298 560.172 L 838.713 563.557 844.526 573.029 L 850.339 582.500 857.116 591.586 L 863.894 600.672 868.504 604.450 L 873.115 608.228 877.558 606.984 L 882.001 605.740 893.197 599.254 L 904.393 592.768 911.046 587.394 L 917.698 582.019 918.392 565.259 L 919.086 548.500 921.032 520.500 L 922.977 492.500 924.045 480.500 L 925.114 468.500 929.086 432.500 L 933.058 396.500 935.462 378 L 937.865 359.500 938.190 354.750 L 938.514 350 937.864 350 L 937.214 350 936.604 351.590 M 600.001 356.583 L 600.001 357.500 601.916 362.500 L 603.831 367.500 608.019 376.500 L 612.207 385.500 618.008 399 L 623.809 412.500 628.286 422.500 L 632.763 432.500 647.438 464.900 L 662.113 497.301 677.056 527.747 L 692 558.194 692 558.726 L 692 559.258 686.838 566.879 L 681.676 574.500 673.392 584.615 L 665.109 594.730 661.978 597.365 L 658.847 600 656.783 600 L 654.719 600 650.219 597.753 L 645.719 595.505 639.109 589.997 L 632.500 584.489 629.903 582.822 L 627.307 581.155 626.634 572.328 L 625.960 563.500 622.999 537.500 L 620.038 511.500 618.067 496.500 L 616.097 481.500 613.112 458.500 L 610.126 435.500 606.583 408.500 L 603.040 381.500 601.378 371.226 L 599.715 360.951 599.223 361.444 L 598.731 361.936 600.351 373.218 L 601.971 384.500 605.460 412 L 608.948 439.500 611.453 463.025 L 613.958 486.550 615.924 511.525 L 617.890 536.500 619.049 558.500 L 620.207 580.500 620.564 581.730 L 620.922 582.959 629.512 589.730 L 638.103 596.500 646.523 601.632 L 654.944 606.765 658.222 607.289 L 661.500 607.813 665.227 605.407 L 668.955 603.002 674.563 596.251 L 680.171 589.500 687.501 578.500 L 694.832 567.500 697.024 562.938 L 699.216 558.376 695.770 552.938 L 692.324 547.500 683.192 530.466 L 674.060 513.433 659.650 483.966 L 645.239 454.500 630.540 422.500 L 615.840 390.500 610.989 380 L 606.138 369.500 603.464 363 L 600.790 356.500 600.395 356.083 L 600 355.667 600.001 356.583 M 592.128 363.500 L 592.024 366.500 593.447 382 L 594.870 397.500 596.940 425.500 L 599.011 453.500 599.995 464 L 600.980 474.500 601.964 500.500 L 602.949 526.500 603.406 543.250 L 603.863 560 603.070 560 L 602.276 560 583.888 541.235 L 565.500 522.471 552 507.617 L 538.500 492.763 532.500 486.005 L 526.500 479.247 510 460.993 L 493.500 442.740 473.663 420.120 L 453.826 397.500 450.163 392.805 L 446.500 388.109 445.371 387.633 L 444.243 387.156 445.635 391.828 L 447.028 396.500 447.512 397.500 L 447.997 398.500 447.672 395.250 L 447.346 392 447.923 392.021 L 448.500 392.043 451.150 395.771 L 453.800 399.500 461.650 408.587 L 469.500 417.675 484.500 434.935 L 499.500 452.196 504.500 458 L 509.500 463.804 517.485 473.152 L 525.470 482.500 549.388 510 L 573.306 537.500 589.903 554.325 L 606.500 571.150 608.261 572.116 L 610.022 573.082 609.514 566.291 L 609.006 559.500 607.973 542 L 606.941 524.500 604.953 499.500 L 602.965 474.500 601.948 462.500 L 600.930 450.500 598.483 421.500 L 596.035 392.500 594.473 378 L 592.912 363.500 592.572 362 L 592.232 360.500 592.128 363.500 M 448.045 399.500 L 448.029 400.500 449.605 405 L 451.180 409.500 461.156 441 L 471.132 472.500 479.128 499.500 L 487.123 526.500 491.680 541.500 L 496.236 556.500 504.492 585.500 L 512.748 614.500 516.859 630.500 L 520.971 646.500 524.478 661.500 L 527.985 676.500 529.033 680.250 L 530.080 684 531.421 684 L 532.762 684 539.187 681.582 L 545.611 679.164 562.056 675.111 L 578.500 671.059 596 668.100 L 613.500 665.141 634 662.636 L 654.500 660.131 665 659.049 L 675.500 657.968 694.500 656.412 L 713.500 654.856 756.500 654.305 L 799.500 653.753 827 655.429 L 854.500 657.104 863 658.022 L 871.500 658.939 882.500 659.977 L 893.500 661.016 896 661.447 L 898.500 661.878 903.912 662.446 L 909.324 663.013 925.412 665.551 L 941.500 668.089 944.500 668.580 L 947.500 669.071 958 671.059 L 968.500 673.047 976 675.059 L 983.500 677.070 994.769 680.682 L 1006.039 684.294 1006.475 683.858 L 1006.911 683.422 1009.934 671.961 L 1012.957 660.500 1022.560 623 L 1032.164 585.500 1046.622 535 L 1061.081 484.500 1068.652 461 L 1076.224 437.500 1080.614 423.507 L 1085.005 409.514 1084.738 408.713 L 1084.471 407.912 1072.093 445.706 L 1059.716 483.500 1038.473 548 L 1017.229 612.500 1013.521 625.592 L 1009.813 638.685 1008.986 640.022 L 1008.160 641.360 995.580 637.505 L 983 633.649 983 632.936 L 983 632.223 986.750 631.532 L 990.500 630.842 994.500 629.088 L 998.500 627.334 1001.639 623.758 L 1004.779 620.183 1006.324 615.341 L 1007.869 610.500 1017.077 582 L 1026.285 553.500 1035.772 526.500 L 1045.260 499.500 1050 486 L 1054.739 472.500 1063.476 448.500 L 1072.212 424.500 1072.753 423.500 L 1073.293 422.500 1072.128 423.569 L 1070.962 424.638 1063.588 444.069 L 1056.214 463.500 1049.607 481 L 1043.001 498.500 1041.022 503 L 1039.043 507.500 1031.617 527 L 1024.191 546.500 1018.024 562.500 L 1011.857 578.500 1004.771 596.500 L 997.685 614.500 995.758 617.273 L 993.832 620.045 989.666 622.243 L 985.500 624.441 978.500 624.441 L 971.500 624.441 967 622.077 L 962.500 619.713 958.328 616.300 L 954.156 612.887 949.828 607.282 L 945.500 601.677 941.751 595.589 L 938.001 589.500 938.014 588.500 L 938.028 587.500 945.138 579.500 L 952.248 571.500 960.442 562 L 968.636 552.500 980.340 538 L 992.044 523.500 995.272 519.551 L 998.500 515.602 1007 504.450 L 1015.500 493.298 1028 476.993 L 1040.500 460.688 1044.500 455.433 L 1048.500 450.177 1054.922 441.838 L 1061.343 433.500 1067.251 426.162 L 1073.158 418.825 1072.780 418.446 L 1072.402 418.068 1048.451 448.180 L 1024.500 478.291 1012.094 493.895 L 999.689 509.500 995.594 514.475 L 991.500 519.450 974.398 539.475 L 957.295 559.500 943.503 573.797 L 929.711 588.093 930.830 591.797 L 931.950 595.500 935.725 601.949 L 939.500 608.397 945.663 614.978 L 951.827 621.560 958.435 625.425 L 965.044 629.289 964.714 629.620 L 964.383 629.950 957.942 628.869 L 951.500 627.788 944 626.198 L 936.500 624.607 938.124 624.255 L 939.748 623.902 945.874 625.317 L 952 626.732 952 626.101 L 952 625.469 946.776 623.614 L 941.552 621.758 934.947 615.129 L 928.341 608.500 924.978 601.500 L 921.615 594.500 921.413 594.189 L 921.211 593.877 914.355 598.847 L 907.500 603.817 901 607.331 L 894.500 610.844 887 613.052 L 879.500 615.260 878.550 616.130 L 877.600 617 865.359 617 L 853.118 617 852.500 616 L 851.882 615 854.191 614.981 L 856.500 614.961 861.339 613.707 L 866.177 612.452 861.012 609.105 L 855.848 605.758 849.902 598.629 L 843.957 591.500 836.339 579.797 L 828.721 568.094 824.147 573.297 L 819.573 578.500 811.743 585.927 L 803.913 593.354 797.207 598.743 L 790.500 604.133 783.519 608.316 L 776.537 612.500 768.001 612.498 L 759.465 612.497 751.983 607.808 L 744.500 603.120 736.037 596.319 L 727.574 589.518 716.980 578.936 L 706.387 568.354 702.445 574.927 L 698.504 581.500 692.813 589 L 687.122 596.500 681.811 602.068 L 676.500 607.637 673.108 610.205 L 669.716 612.773 674.907 613.887 L 680.098 615 683.299 615.118 L 686.500 615.237 683.500 616 L 680.500 616.763 671.261 616.882 L 662.022 617 654.261 614.899 L 646.500 612.798 640.500 609.964 L 634.500 607.130 628 602.962 L 621.500 598.795 618.852 596.308 L 616.203 593.821 612.384 601.088 L 608.566 608.355 603.144 614.211 L 597.723 620.067 591.640 623.632 L 585.556 627.197 579.068 628.555 L 572.579 629.912 572.193 629.526 L 571.806 629.140 575.653 627.175 L 579.500 625.211 585.693 620.649 L 591.886 616.088 596.882 608.974 L 601.878 601.860 604.609 594.899 L 607.340 587.938 594.879 575.219 L 582.417 562.500 574.322 553.500 L 566.227 544.500 549.364 524.497 L 532.500 504.495 514.553 481.997 L 496.605 459.500 487.036 447.500 L 477.466 435.500 474.858 432 L 472.249 428.500 468.166 424 L 464.082 419.500 464.041 420.179 L 464 420.857 465.297 422.179 L 466.594 423.500 475.016 434.500 L 483.439 445.500 489.469 453.057 L 495.500 460.615 506.500 474.891 L 517.500 489.167 534.846 511.334 L 552.191 533.500 557.846 540.403 L 563.500 547.306 572.931 558.403 L 582.362 569.500 591.150 579.120 L 599.938 588.740 596.219 594.833 L 592.500 600.927 587.086 607.433 L 581.673 613.940 576.086 617.835 L 570.500 621.730 567.300 623.365 L 564.099 625 558.300 624.978 L 552.500 624.956 548.384 623.087 L 544.268 621.218 541.782 617.859 L 539.297 614.500 534.174 602 L 529.052 589.500 518.917 564 L 508.781 538.500 503.997 526 L 499.213 513.500 495.063 503.278 L 490.914 493.056 488.576 486.778 L 486.238 480.500 476.692 455.500 L 467.146 430.500 465.515 426.642 L 463.883 422.784 463.419 423.248 L 462.955 423.711 466.575 433.106 L 470.194 442.500 478.675 465.500 L 487.156 488.500 493.956 507.500 L 500.756 526.500 511.829 559 L 522.902 591.500 527.473 606 L 532.045 620.500 533.242 622.844 L 534.439 625.189 538.969 627.475 L 543.500 629.761 549.296 631.050 L 555.091 632.339 555.497 632.996 L 555.903 633.652 542.666 637.326 L 529.429 641 528.767 641 L 528.105 641 523.516 626.250 L 518.927 611.500 490.503 525.500 L 462.079 439.500 455.938 420.500 L 449.796 401.500 448.929 400 L 448.061 398.500 448.045 399.500 M 700.767 587.250 L 694.218 596.500 688.609 602.926 L 683 609.351 683 610.045 L 683 610.738 686.750 611.358 L 690.500 611.978 718.250 611.989 L 746 612 745.977 611.250 L 745.954 610.500 737.755 604.500 L 729.556 598.500 718.940 588.250 L 708.325 578 707.821 578 L 707.317 578 700.767 587.250 M 821.469 584.079 L 815.500 590.159 804.500 599.418 L 793.500 608.678 791.750 609.308 L 790 609.937 790 610.869 L 790 611.801 811.750 612.242 L 833.500 612.683 843.684 611.683 L 853.868 610.683 848.880 605.592 L 843.891 600.500 836.269 589.250 L 828.646 578 828.042 578 L 827.437 578 821.469 584.079 M 614.421 607.893 L 611.513 612.500 607.267 617.723 L 603.021 622.946 605.761 622.419 L 608.500 621.892 622 619.662 L 635.500 617.431 635.500 616.234 L 635.500 615.037 626.415 609.162 L 617.329 603.286 614.421 607.893 M 908.500 609.098 L 899.500 615.028 899.204 615.903 L 898.907 616.778 903.704 617.879 L 908.500 618.979 915 619.950 L 921.500 620.920 927.500 621.538 L 933.500 622.156 930.388 618.828 L 927.276 615.500 923.101 609.250 L 918.925 603 918.213 603.084 L 917.500 603.168 908.500 609.098 M 716 618.986 L 693.500 619.805 673.500 621.421 L 653.500 623.038 641.310 624.522 L 629.120 626.007 614.810 628.457 L 600.500 630.907 592 632.415 L 583.500 633.924 567.500 638.014 L 551.500 642.105 546.500 643.556 L 541.500 645.007 536.250 647.120 L 531 649.232 531.022 649.866 L 531.044 650.500 533.933 661.828 L 536.823 673.156 537.290 673.623 L 537.758 674.091 547.690 671.140 L 557.622 668.190 570.061 665.566 L 582.500 662.943 593.500 661.033 L 604.500 659.124 619.500 657.094 L 634.500 655.065 650 653.545 L 665.500 652.026 678.500 651.058 L 691.500 650.091 706 649.489 L 720.500 648.887 723.245 648.365 L 725.991 647.843 766.245 647.816 L 806.500 647.788 817.500 648.438 L 828.500 649.087 844.500 650.076 L 860.500 651.065 876 652.544 L 891.500 654.023 908 656.067 L 924.500 658.110 943 661.124 L 961.500 664.139 972 666.576 L 982.500 669.013 991.257 671.666 L 1000.014 674.319 1000.304 673.910 L 1000.593 673.500 1003.315 662 L 1006.037 650.500 1006.018 649.856 L 1006 649.213 999.750 646.723 L 993.500 644.234 982.500 641.147 L 971.500 638.060 957.804 635.015 L 944.107 631.970 925.304 628.978 L 906.500 625.987 887 623.949 L 867.500 621.910 843.546 620.490 L 819.592 619.070 779.046 618.618 L 738.500 618.167 716 618.986 M 593.500 625.477 L 588.500 626.762 591 626.785 L 593.500 626.808 598.500 625.523 L 603.500 624.238 601 624.215 L 598.500 624.192 593.500 625.477 M 600.126 636.537 L 586.752 638.905 575.376 641.550 L 564 644.196 564 644.659 L 564 645.123 568.250 644.493 L 572.500 643.863 574.213 649.682 L 575.927 655.500 574.272 656.750 L 572.618 658 574.059 657.961 L 575.500 657.922 598 653.998 L 620.500 650.074 612 650.497 L 603.500 650.920 605.250 650.387 L 607 649.853 607 648.927 L 607 648 608.500 648 L 610 648 610 645.934 L 610 643.869 609.027 642.051 L 608.054 640.233 604.425 639.552 L 600.796 638.871 601.253 638.414 L 601.710 637.957 610.105 636.063 L 618.500 634.169 616 634.169 L 613.500 634.170 600.126 636.537 M 955.750 641.187 L 960 642.284 960 643.642 L 960 645 959 645 L 958 645 958 646.140 L 958 647.280 956.250 648.714 L 954.500 650.148 956 649.382 L 957.500 648.616 956.128 650.308 L 954.755 652 956 653.500 L 957.245 655 952.372 655.079 L 947.500 655.158 962.500 658.555 L 977.500 661.952 978.395 661.678 L 979.290 661.403 975.187 660.174 L 971.085 658.945 971.292 656.070 L 971.500 653.195 972.250 653.656 L 973 654.118 973 651.618 L 973 649.118 974.016 648.490 L 975.033 647.862 974.516 647.026 L 974 646.190 978.250 646.733 L 982.500 647.275 981.959 646.680 L 981.419 646.086 971.459 643.606 L 961.500 641.125 956.500 640.608 L 951.500 640.090 955.750 641.187" stroke="none" fill="#482204" fill-rule="evenodd"/><path d="M 767.292 229.500 L 766.130 235.500 765.476 239.754 L 764.823 244.008 764.092 243.557 L 763.362 243.106 763.815 246.195 L 764.269 249.284 763.194 248.620 L 762.118 247.955 762.642 251.728 L 763.166 255.500 762.111 254 L 761.057 252.500 761.566 256 L 762.074 259.500 760.662 267.500 L 759.249 275.500 752.601 314.500 L 745.953 353.500 743.422 368 L 740.891 382.500 738.402 396 L 735.914 409.500 727.948 449.500 L 719.981 489.500 718.522 495.500 L 717.063 501.500 714.970 511 L 712.876 520.500 709.284 533 L 705.693 545.500 705.066 546.230 L 704.439 546.961 693.970 528.263 L 683.500 509.566 672.395 487.533 L 661.289 465.500 634.068 411.671 L 606.847 357.841 607.412 356.369 L 607.977 354.896 606.819 355.612 L 605.660 356.328 606.294 354.676 L 606.928 353.024 605.714 353.262 L 604.500 353.500 604.573 351.309 L 604.646 349.118 603.761 349.309 L 602.875 349.500 595.874 336 L 588.874 322.500 589.421 326.577 L 589.968 330.653 591.059 343.077 L 592.150 355.500 591.561 359.500 L 590.972 363.500 591.795 362.250 L 592.618 361 594.313 376.750 L 596.007 392.500 598.469 421.500 L 600.930 450.500 601.948 462.500 L 602.965 474.500 604.953 499.500 L 606.941 524.500 607.973 542 L 609.006 559.500 609.514 566.291 L 610.022 573.082 608.261 572.116 L 606.500 571.150 589.903 554.325 L 573.306 537.500 549.388 510 L 525.470 482.500 517.485 473.152 L 509.500 463.804 504.500 458 L 499.500 452.196 484.500 434.935 L 469.500 417.674 460.783 407.587 L 452.065 397.500 452.283 396 L 452.500 394.500 451.222 394.759 L 449.944 395.019 449.365 393.509 L 448.786 392 448.027 392 L 447.269 392 448.218 396.250 L 449.167 400.500 449.334 402.655 L 449.500 404.809 450.098 404.440 L 450.695 404.070 456.378 421.785 L 462.061 439.500 490.494 525.500 L 518.927 611.500 523.516 626.250 L 528.105 641 528.767 641 L 529.429 641 542.666 637.326 L 555.903 633.652 555.497 632.996 L 555.091 632.339 549.296 631.050 L 543.500 629.761 538.969 627.475 L 534.439 625.189 533.242 622.844 L 532.045 620.500 527.473 606 L 522.902 591.500 511.829 559 L 500.756 526.500 493.956 507.500 L 487.156 488.500 478.675 465.500 L 470.194 442.500 466.597 433.164 L 463 423.828 463 423.355 L 463 422.882 463.948 423.468 L 464.895 424.053 464.488 421.938 L 464.081 419.822 465.529 421.024 L 466.978 422.227 466.334 423.268 L 465.691 424.309 466.732 423.666 L 467.773 423.022 468.973 424.467 L 470.172 425.912 469.432 427.111 L 468.691 428.309 469.765 427.645 L 470.839 426.981 473.920 430.719 L 477 434.456 477 435.287 L 477 436.118 475.845 435.405 L 474.691 434.691 475.415 435.862 L 476.138 437.033 476.960 436.525 L 477.782 436.017 487.187 447.758 L 496.593 459.500 514.546 481.997 L 532.500 504.495 549.364 524.497 L 566.227 544.500 574.322 553.500 L 582.417 562.500 594.879 575.219 L 607.340 587.938 604.609 594.899 L 601.878 601.860 596.882 608.974 L 591.886 616.088 585.693 620.649 L 579.500 625.211 575.653 627.175 L 571.806 629.140 572.193 629.526 L 572.579 629.912 579.068 628.555 L 585.556 627.197 591.640 623.632 L 597.723 620.067 603.144 614.211 L 608.566 608.355 612.384 601.088 L 616.203 593.821 618.852 596.308 L 621.500 598.795 628 602.962 L 634.500 607.130 640.500 609.964 L 646.500 612.798 654.261 614.899 L 662.022 617 671.261 616.882 L 680.500 616.763 683.500 616 L 686.500 615.237 683.299 615.118 L 680.098 615 674.907 613.887 L 669.716 612.773 673.108 610.205 L 676.500 607.637 681.811 602.068 L 687.122 596.500 692.813 589 L 698.504 581.500 702.445 574.927 L 706.387 568.354 716.980 578.936 L 727.574 589.518 736.037 596.319 L 744.500 603.120 751.983 607.808 L 759.465 612.497 768.001 612.498 L 776.537 612.500 783.519 608.316 L 790.500 604.133 797.207 598.743 L 803.913 593.354 811.743 585.927 L 819.573 578.500 824.147 573.297 L 828.721 568.094 836.339 579.797 L 843.957 591.500 849.902 598.629 L 855.848 605.758 861.012 609.105 L 866.177 612.452 861.339 613.707 L 856.500 614.961 854.191 614.981 L 851.882 615 852.500 616 L 853.118 617 865.359 617 L 877.600 617 878.550 616.130 L 879.500 615.260 887 613.052 L 894.500 610.844 901 607.331 L 907.500 603.817 914.355 598.847 L 921.211 593.877 921.413 594.189 L 921.615 594.500 924.978 601.500 L 928.341 608.500 934.947 615.129 L 941.552 621.758 946.776 623.614 L 952 625.469 952 626.101 L 952 626.732 945.874 625.317 L 939.748 623.902 938.124 624.255 L 936.500 624.607 944 626.198 L 951.500 627.788 957.942 628.869 L 964.383 629.950 964.714 629.620 L 965.044 629.289 958.435 625.425 L 951.827 621.560 945.663 614.978 L 939.500 608.397 935.725 601.949 L 931.950 595.500 930.830 591.797 L 929.711 588.093 943.503 573.797 L 957.295 559.500 974.398 539.475 L 991.500 519.450 995.594 514.475 L 999.689 509.500 1012.094 493.903 L 1024.500 478.305 1035.305 464.628 L 1046.110 450.950 1046.942 451.464 L 1047.773 451.978 1049.137 450.239 L 1050.500 448.500 1048.750 449.872 L 1047 451.245 1047 450.564 L 1047 449.883 1050.144 445.971 L 1053.287 442.059 1054.074 442.546 L 1054.862 443.033 1055.585 441.862 L 1056.309 440.691 1055.155 441.405 L 1054 442.118 1054 441.214 L 1054 440.310 1056.105 438.405 L 1058.210 436.500 1058.844 436.741 L 1059.479 436.983 1059.489 435.244 L 1059.500 433.505 1060.700 433.503 L 1061.900 433.500 1063.200 432.103 L 1064.500 430.707 1063.250 431.412 L 1062 432.118 1062 431.181 L 1062 430.245 1063.342 429.131 L 1064.684 428.017 1065.200 428.533 L 1065.715 429.048 1067.107 427.332 L 1068.500 425.616 1067.250 426.367 L 1066 427.118 1066.042 426.309 L 1066.083 425.500 1069.542 421.583 L 1073 417.667 1073 418.774 L 1073 419.882 1071.951 420.530 L 1070.903 421.178 1071.791 422.339 L 1072.680 423.500 1064.246 446.500 L 1055.812 469.500 1050.537 484.500 L 1045.262 499.500 1035.773 526.500 L 1026.285 553.500 1017.077 582 L 1007.869 610.500 1006.324 615.341 L 1004.779 620.183 1001.639 623.758 L 998.500 627.334 994.500 629.088 L 990.500 630.842 986.750 631.532 L 983 632.223 983 632.936 L 983 633.649 995.580 637.505 L 1008.160 641.360 1008.986 640.022 L 1009.813 638.685 1013.521 625.592 L 1017.229 612.500 1038.474 548 L 1059.719 483.500 1071.064 448.818 L 1082.410 414.135 1083.359 414.722 L 1084.309 415.309 1083.624 414.200 L 1082.939 413.092 1083.576 410.553 L 1084.213 408.014 1085.214 408.632 L 1086.214 409.250 1085.500 407 L 1084.786 404.750 1085.748 405.345 L 1086.711 405.939 1086.211 403.321 L 1085.710 400.703 1087.010 401.506 L 1088.309 402.309 1087.659 401.257 L 1087.009 400.205 1087.626 397.119 L 1088.244 394.032 1089.028 394.518 L 1089.813 395.003 1089.273 392.936 L 1088.732 390.869 1085.786 394.444 L 1082.839 398.019 1081.989 397.493 L 1081.138 396.967 1080.415 398.138 L 1079.691 399.309 1080.845 398.595 L 1082 397.882 1081.994 398.691 L 1081.987 399.500 1077.910 404.257 L 1073.832 409.014 1072.762 408.353 L 1071.691 407.691 1072.403 408.843 L 1073.115 409.995 1068.808 414.997 L 1064.500 419.999 1063.595 420 L 1062.690 420 1064.595 417.750 L 1066.500 415.500 1064.274 417.384 L 1062.047 419.267 1062.622 420.197 L 1063.196 421.126 1061.464 423.039 L 1059.733 424.953 1058.935 424.460 L 1058.138 423.967 1057.415 425.138 L 1056.691 426.309 1057.845 425.595 L 1059 424.882 1059 425.745 L 1059 426.608 1055.750 429.758 L 1052.500 432.908 1051.667 432.871 L 1050.833 432.833 1050.167 433.577 L 1049.500 434.321 1050.750 433.601 L 1052 432.882 1052 433.568 L 1052 434.255 1044.750 442.869 L 1037.500 451.482 1029.806 460.270 L 1022.113 469.059 1007.722 486.279 L 993.331 503.500 977.554 521.500 L 961.777 539.500 945.810 556.250 L 929.842 573 928.773 573 L 927.703 573 928.384 557.750 L 929.064 542.500 932.561 498 L 936.058 453.500 938.009 429.500 L 939.960 405.500 941.936 381.360 L 943.913 357.220 945.169 346.645 L 946.425 336.070 947.074 337.120 L 947.723 338.169 947.220 332.938 L 946.717 327.707 947.692 328.310 L 948.667 328.912 948.770 327.206 L 948.873 325.500 948.374 323.078 L 947.876 320.656 945.621 325.078 L 943.366 329.500 942.219 329.262 L 941.072 329.024 941.706 330.676 L 942.340 332.328 941.181 331.612 L 940.023 330.896 940.529 332.214 L 941.034 333.531 912.420 390.516 L 883.806 447.500 869.262 476 L 854.717 504.500 847.993 516.500 L 841.268 528.500 836.541 536.500 L 831.815 544.500 831.407 544.917 L 831 545.333 830.559 544.892 L 830.118 544.451 824.609 522.476 L 819.101 500.500 809.584 453 L 800.068 405.500 795.575 381 L 791.082 356.500 786.510 329.300 L 781.937 302.101 782.484 299.300 L 783.031 296.500 782.202 298.394 L 781.373 300.288 779.461 289.394 L 777.548 278.500 777.524 273.845 L 777.500 269.191 776.669 270.345 L 775.838 271.500 776.443 267.176 L 777.047 262.853 775.868 263.582 L 774.688 264.311 775.285 260.633 L 775.882 256.955 774.794 257.627 L 773.706 258.300 774.245 253.515 L 774.785 248.730 773.808 250.115 L 772.832 251.500 773.401 248.200 L 773.970 244.901 773.079 245.451 L 772.188 246.002 771.508 241.059 L 770.828 236.116 771.480 233.808 L 772.131 231.500 771.001 233 L 769.871 234.500 770.226 230.820 L 770.582 227.140 769.863 227.585 L 769.143 228.030 768.799 225.765 L 768.455 223.500 767.292 229.500 M 768.102 255.168 L 768 256.836 767.330 258.582 L 766.660 260.328 767.830 259.605 L 769 258.882 769 259.859 L 769 260.836 768.361 262.502 L 767.722 264.168 766.785 262.834 L 765.848 261.500 766.299 266.232 L 766.750 270.964 765.723 270.329 L 764.696 269.694 765.279 274.045 L 765.863 278.396 764.849 276.948 L 763.836 275.500 764.338 281 L 764.840 286.500 764.089 284.555 L 763.337 282.610 762.078 293.233 L 760.819 303.855 761.475 306.178 L 762.131 308.500 761.245 307.231 L 760.359 305.962 758.668 317.731 L 756.978 329.500 754.503 346.500 L 752.028 363.500 747.545 392.500 L 743.062 421.500 740.524 436.157 L 737.986 450.814 733.925 470.657 L 729.865 490.500 724.411 513 L 718.958 535.500 715.911 546.286 L 712.864 557.071 717.844 562.786 L 722.824 568.500 734.662 580.093 L 746.500 591.686 754.465 597.962 L 762.429 604.237 765.711 605.802 L 768.992 607.366 777.746 601.456 L 786.500 595.545 802.014 580.023 L 817.527 564.500 820.365 560.773 L 823.202 557.046 818.695 539.773 L 814.188 522.500 810.034 504.622 L 805.880 486.744 803.986 477.622 L 802.091 468.500 798.536 449.674 L 794.981 430.848 789.976 398.174 L 784.970 365.500 782.531 350 L 780.092 334.500 776.857 311.613 L 773.622 288.726 772.796 290.613 L 771.969 292.500 772.546 289.581 L 773.123 286.662 772.415 280.081 L 771.708 273.500 771.104 275.197 L 770.500 276.894 770.279 268.697 L 770.058 260.500 769.131 257 L 768.205 253.500 768.102 255.168 M 936.717 351.250 L 936.268 352.500 936.792 355.918 L 937.316 359.335 935.775 358.744 L 934.235 358.153 932.505 361.990 L 930.775 365.826 931.542 367.068 L 932.309 368.309 931.261 367.661 L 930.212 367.013 925.981 376.757 L 921.751 386.500 911.979 408.500 L 902.207 430.500 893.735 448.500 L 885.264 466.500 877.507 482 L 869.751 497.500 859.250 517 L 848.748 536.500 843.719 545 L 838.690 553.500 837.287 555.143 L 835.884 556.786 837.298 560.172 L 838.713 563.557 844.526 573.029 L 850.339 582.500 857.116 591.586 L 863.894 600.672 868.504 604.450 L 873.115 608.228 877.558 606.984 L 882.001 605.740 893.197 599.254 L 904.393 592.768 911.046 587.394 L 917.698 582.019 918.392 565.259 L 919.086 548.500 921.032 520.500 L 922.977 492.500 924.045 480.500 L 925.114 468.500 929.086 432.500 L 933.058 396.500 935.462 378 L 937.865 359.500 938.190 354.750 L 938.514 350 937.841 350 L 937.167 350 936.717 351.250 M 600.056 357.500 L 600.307 359.500 599.570 361.190 L 598.832 362.880 600.407 373.690 L 601.981 384.500 605.465 412 L 608.948 439.500 611.453 463.025 L 613.958 486.550 615.924 511.525 L 617.890 536.500 619.049 558.500 L 620.207 580.500 620.564 581.730 L 620.922 582.959 629.512 589.730 L 638.103 596.500 646.523 601.632 L 654.944 606.765 658.222 607.289 L 661.500 607.813 665.227 605.407 L 668.955 603.002 674.563 596.251 L 680.171 589.500 687.501 578.500 L 694.832 567.500 697.024 562.938 L 699.216 558.376 695.770 552.938 L 692.324 547.500 683.192 530.466 L 674.060 513.433 659.650 483.966 L 645.239 454.500 630.539 422.500 L 615.838 390.500 612.275 382.780 L 608.713 375.060 607.868 375.582 L 607.023 376.104 607.681 374.388 L 608.340 372.672 607.181 373.388 L 606.023 374.104 606.547 372.739 L 607.070 371.375 603.923 363.937 L 600.775 356.500 600.290 356 L 599.804 355.500 600.056 357.500 M 716 618.986 L 693.500 619.805 673.500 621.421 L 653.500 623.038 641.310 624.522 L 629.120 626.007 614.810 628.457 L 600.500 630.907 592 632.415 L 583.500 633.924 567.500 638.014 L 551.500 642.105 546.500 643.556 L 541.500 645.007 536.250 647.120 L 531 649.232 531.022 649.866 L 531.044 650.500 533.933 661.828 L 536.823 673.156 537.290 673.623 L 537.758 674.091 547.690 671.140 L 557.622 668.190 570.061 665.566 L 582.500 662.943 593.500 661.033 L 604.500 659.124 619.500 657.094 L 634.500 655.065 650 653.545 L 665.500 652.026 678.500 651.058 L 691.500 650.091 706 649.489 L 720.500 648.887 723.245 648.365 L 725.991 647.843 766.245 647.816 L 806.500 647.788 817.500 648.438 L 828.500 649.087 844.500 650.076 L 860.500 651.065 876 652.544 L 891.500 654.023 908 656.067 L 924.500 658.110 943 661.124 L 961.500 664.139 972 666.576 L 982.500 669.013 991.257 671.666 L 1000.014 674.319 1000.304 673.910 L 1000.593 673.500 1003.315 662 L 1006.037 650.500 1006.018 649.856 L 1006 649.213 999.750 646.723 L 993.500 644.234 982.500 641.147 L 971.500 638.060 957.804 635.015 L 944.107 631.970 925.304 628.978 L 906.500 625.987 887 623.949 L 867.500 621.910 843.546 620.490 L 819.592 619.070 779.046 618.618 L 738.500 618.167 716 618.986 M 593.500 625.477 L 588.500 626.762 591 626.785 L 593.500 626.808 598.500 625.523 L 603.500 624.238 601 624.215 L 598.500 624.192 593.500 625.477 M 600.126 636.537 L 586.752 638.905 575.376 641.550 L 564 644.196 564 644.659 L 564 645.123 568.250 644.493 L 572.500 643.863 574.213 649.682 L 575.927 655.500 574.272 656.750 L 572.618 658 574.059 657.961 L 575.500 657.922 598 653.998 L 620.500 650.074 612 650.497 L 603.500 650.920 605.250 650.387 L 607 649.853 607 648.927 L 607 648 608.500 648 L 610 648 610 645.934 L 610 643.869 609.027 642.051 L 608.054 640.233 604.425 639.552 L 600.796 638.871 601.253 638.414 L 601.710 637.957 610.105 636.063 L 618.500 634.169 616 634.169 L 613.500 634.170 600.126 636.537 M 955.750 641.187 L 960 642.284 960 643.642 L 960 645 959 645 L 958 645 958 646.140 L 958 647.280 956.250 648.714 L 954.500 650.148 956 649.382 L 957.500 648.616 956.128 650.308 L 954.755 652 956 653.500 L 957.245 655 952.372 655.079 L 947.500 655.158 962.500 658.555 L 977.500 661.952 978.395 661.678 L 979.290 661.403 975.187 660.174 L 971.085 658.945 971.292 656.070 L 971.500 653.195 972.250 653.656 L 973 654.118 973 651.618 L 973 649.118 974.016 648.490 L 975.033 647.862 974.516 647.026 L 974 646.190 978.250 646.733 L 982.500 647.275 981.959 646.680 L 981.419 646.086 971.459 643.606 L 961.500 641.125 956.500 640.608 L 951.500 640.090 955.750 641.187" stroke="none" fill="#ecd35e" fill-rule="evenodd"/></svg>