<svg xmlns="http://www.w3.org/2000/svg" viewBox="0 0 256 160" role="img" aria-labelledby="title">
  <title id="title">Coroa Azury dourada com diamante azul</title>
  <defs>
    <linearGradient id="gold" x1="0" y1="0" x2="1" y2="1">
      <stop offset="0" stop-color="#fff2a8"/>
      <stop offset="0.28" stop-color="#f7c84b"/>
      <stop offset="0.58" stop-color="#c98a10"/>
      <stop offset="0.82" stop-color="#ffdc68"/>
      <stop offset="1" stop-color="#9c6200"/>
    </linearGradient>
    <linearGradient id="blue" x1="0" y1="0" x2="1" y2="1">
      <stop offset="0" stop-color="#77b7ff"/>
      <stop offset="0.45" stop-color="#0051ff"/>
      <stop offset="1" stop-color="#001b7a"/>
    </linearGradient>
    <filter id="shadow" x="-20%" y="-20%" width="140%" height="150%">
      <feDropShadow dx="0" dy="5" stdDeviation="4" flood-color="#6c4200" flood-opacity=".28"/>
    </filter>
  </defs>

  <g filter="url(#shadow)">
    <path d="M25 118
             L42 42
             L91 88
             L128 20
             L165 88
             L214 42
             L231 118
             Z"
          fill="url(#gold)" stroke="#8f5a00" stroke-width="5" stroke-linejoin="round"/>

    <path d="M35 116
             C69 101, 98 105, 128 116
             C158 105, 187 101, 221 116
             L216 136
             C181 128, 161 132, 128 142
             C95 132, 75 128, 40 136
             Z"
          fill="url(#gold)" stroke="#8f5a00" stroke-width="5" stroke-linejoin="round"/>

    <circle cx="42" cy="42" r="8" fill="url(#gold)" stroke="#8f5a00" stroke-width="4"/>
    <circle cx="128" cy="20" r="9" fill="url(#gold)" stroke="#8f5a00" stroke-width="4"/>
    <circle cx="214" cy="42" r="8" fill="url(#gold)" stroke="#8f5a00" stroke-width="4"/>

    <path d="M128 75 L151 99 L128 125 L105 99 Z"
          fill="url(#blue)" stroke="#ffffff" stroke-width="3"/>
    <path d="M128 75 L128 125 M105 99 H151"
          stroke="#b9dcff" stroke-width="2" opacity=".8"/>
  </g>
</svg>
